<svg xmlns="http://www.w3.org/2000/svg" viewBox="0 0 460 460"><path d="M30 430c0 16.568 13.43 30 30 30l10-30-10-30c-16.57 0-30 13.432-30 30z" fill="#466289"/><path d="M60 400v60c16.568 0 30-13.432 30-30s-13.432-30-30-30zM320 430c0 16.568 13.43 30 30 30l10-30-10-30c-16.57 0-30 13.432-30 30z" fill="#354A67"/><path d="M350 400v60c16.568 0 30-13.432 30-30s-13.432-30-30-30z" fill="#233145"/><path fill="#FFB739" d="M160 90H30v62.5l60 10 60-10"/><path fill="#FB992D" d="M30 152.5V215l60 10 60-10 10-62.5"/><path fill="#FFD488" d="M160 215H30v62.5l60 10 60-10"/><path fill="#FFB739" d="M30 277.5V340l130 10v-72.5"/><path fill="#F67A21" d="M350 90H150v125l100 10 100-10"/><path fill="#FB992D" d="M150 215h200v135H150z"/><path fill="#466289" d="M390 340H0v30h410"/><path fill="#354A67" d="M380 0v340l30 30V30h50V0"/></svg>