<svg xmlns="http://www.w3.org/2000/svg" viewBox="0 0 58 58"><path d="M54.783 50H3.217C1.44 50 0 48.56 0 46.783V11.217C0 9.44 1.44 8 3.217 8h51.566C56.56 8 58 9.44 58 11.217v35.566C58 48.56 56.56 50 54.783 50" fill="#D5B89A"/><path d="M46 20c0 3.314-2.686 6-6 6-3.315 0-6-2.686-6-6s2.685-6 6-6c3.314 0 6 2.686 6 6" fill="#E74C3D"/><path d="M53 20c0 3.314-2.686 6-6 6s-6-2.686-6-6 2.686-6 6-6 6 2.686 6 6" fill="#F0C41B"/><path d="M14 15H5c-.553 0-1 .448-1 1s.447 1 1 1h9c.553 0 1-.448 1-1s-.447-1-1-1M28 16c0-.552-.447-1-1-1h-9c-.553 0-1 .448-1 1s.447 1 1 1h9c.553 0 1-.448 1-1M6 20H5c-.553 0-1 .448-1 1s.447 1 1 1h1c.553 0 1-.448 1-1s-.447-1-1-1M12 20h-2c-.553 0-1 .448-1 1s.447 1 1 1h2c.553 0 1-.448 1-1s-.447-1-1-1M17 20h-1c-.553 0-1 .448-1 1s.447 1 1 1h1c.553 0 1-.448 1-1s-.447-1-1-1M23 20h-2c-.553 0-1 .448-1 1s.447 1 1 1h2c.553 0 1-.448 1-1s-.447-1-1-1M26.3 20.29c-.19.19-.3.44-.3.71s.11.52.29.71c.19.18.45.29.71.29.26 0 .52-.11.71-.29.18-.19.29-.45.29-.71 0-.26-.11-.52-.29-.7-.37-.38-1.05-.38-1.41-.01" fill="#E4D6B6"/><path fill="#665248" d="M5 37h9v6H5zM18 37h9v6h-9zM31 37h9v6h-9zM44 37h9v6h-9z"/></svg>