<svg xmlns="http://www.w3.org/2000/svg" width="74.523mm" height="14.364mm" viewBox="0 0 1303 251" shape-rendering="geometricPrecision" text-rendering="geometricPrecision" image-rendering="optimizeQuality" fill-rule="evenodd" clip-rule="evenodd"><defs><style><![CDATA[
    .fil1 {fill:#212121;fill-rule:nonzero}
    .fil0 {fill:#E00B0B;fill-rule:nonzero}
   ]]></style></defs><g id="Слой_x0020_1"><path class="fil0" d="M145 92c-3-8-9-12-11-14 29-11 43-38 50-70-4-6-30-8-39-1-5 16-9 46-39 58 7-27 11-43 15-57-1-5-25-8-33-4C66 31 11 17 5 52 0 73 22 85 42 81c4-4 8-11 7-17-5-2-6-8-4-14 5-12 26-11 34-20-10 31-21 99-37 98-8 0-9-13 0-20-1-9-11-15-18-16-33 1-36 59 15 59 37 0 51-27 61-61 8 2 10 7 12 15 4 18 1 66 31 75 18 3 29-17 26-28-24-15-15-39-24-60zm48 83c-4 0-7-3-7-6s3-6 7-6h1101c4 0 6 3 6 6s-2 6-6 6H193zm-181 0c-3 0-6-3-6-6s3-6 6-6h83c4 0 6 3 6 6s-2 6-6 6H12zM232 57c-27-1-53 12-60 44-9 35 12 50 38 50 15 0 29-3 40-12 15 1 35 3 50-25 2-2-8-9-9-6-8 11-18 20-28 18 20-33 7-68-31-69zm-5 23c7 0 7 14 3 30-7 1-11 12-7 16-1 1-4 3-7 3-7 0-8-17-5-29 4-14 12-20 16-20zm125 71c21-1 38-18 50-37 0-3-8-9-10-6-9 12-17 20-25 20-12-1-10-29-3-64 1-8-39-9-45-2-22 26-35 54-44 83-3 10 35 7 37 1 4-13 9-29 16-47h1c-6 35-1 53 23 52zm101-94c-27-1-53 12-61 44-8 35 13 50 39 50 14 0 29-3 40-12 15 1 34 3 50-25 1-2-8-9-10-6-7 11-17 20-28 18 21-33 7-68-30-69zm-5 23c7 0 7 14 3 30-8 1-12 12-7 16-1 1-4 3-7 3-8 0-8-17-5-29 4-14 11-20 16-20zm102 71c15 0 30-5 40-12 15 1 36 2 51-25 1-2-9-9-10-6-6 9-19 21-28 18 16-25 12-61-16-63-10-1-22 3-30 10 2-12 9-22 20-28 13-7 28-4 34-17s-6-27-9-28c-17 16-34 19-51 30-22 14-35 37-38 66-4 30 2 55 37 55zm6-22c-10-1-6-21-4-29 4-12 10-15 15-15 6 1 7 7 2 26-5-1-11 10-6 15-1 1-2 3-7 3zm134-71c-24 3-58 22-61 59-3 31 18 34 30 34 21 0 30-13 36-25-3 15 1 25 15 25 25 1 44-13 58-37 1-2-8-9-10-6-7 11-17 19-26 20-4 0-8-4-4-17 1-6 2-9 4-13-4-5-25-11-33-6-4 10-14 35-23 36-7 0-6-9-3-21 5-15 16-26 30-26 11 0 24 3 32 10 5 0 16-11 14-19-13-14-40-17-59-14zm89 93c12 0 28-5 37-22 0 12 4 22 19 22s29-6 42-26c-4 20 6 26 15 26 21 0 42-16 53-37 1-3-8-9-10-6-6 11-16 20-24 20-7-1 6-40 12-64-5-8-33-9-39-4-4 14-8 28-12 43-4 9-10 24-16 25-4 0-4-5-3-14 2-7 11-40 13-50-5-9-33-9-39-5-3 14-7 28-11 40-3 11-11 28-18 29-4 0-3-5-1-14s10-39 13-49c0-8-34-11-39-5-6 19-11 37-15 54-3 15-6 38 23 37zm271-43c-9 16-19 21-29 21-10-1-15-14-15-29 7-9 18-19 23-23 5-7-11-22-20-19-10 5-20 16-28 26 5-19 13-49 20-73 2-8-37-12-40-6-9 27-27 101-36 140-1 11 40 6 41 1 1-8 3-15 5-21 1-4 4-8 6-10 5 18 8 36 32 36 18 0 37-12 51-37 2-2-7-9-10-6zm70-49c-3 13-6 26-10 40-4 10-13 28-19 29-7 0-2-15 12-64-5-8-34-10-40-5-5 19-10 38-14 56-4 16-4 36 23 36 18 0 30-8 42-26-4 19 3 26 14 26 25 0 44-20 54-37 1-2-8-9-10-6-8 12-17 20-24 20-8-1 6-40 12-64-7-9-35-9-40-5zm173 49c-9 14-17 20-24 20-4 0-5-4-4-11 2-10 8-31 13-52-5-8-32-10-39-5-3 10-6 22-9 34h-14c2-11 4-18 7-29-4-7-30-10-39-5-8 26-15 57-23 85-2 9 40 8 41 1 3-11 6-20 8-30h14c0 2 0 3-1 4-4 18 1 32 28 31 25-1 41-20 52-37 0-2-8-9-10-6z"/><path class="fil1" d="M201 238v-44h31v44h-6v-38h-19v38h-6zm70-16c0 6-1 10-4 13-2 3-6 4-11 4-4 0-8-1-11-4-2-3-3-7-3-13s1-11 3-13c3-3 7-5 11-5 5 0 9 2 11 5 3 3 4 7 4 13zm-6 0c0-5 0-8-2-10-1-2-4-3-7-3s-5 1-6 3c-2 2-3 5-3 10 0 4 1 7 2 10 2 2 4 3 7 3s6-1 7-3c2-2 2-6 2-10zm9 24v-12h3c2-4 4-8 5-14 1-5 2-10 2-15h18v29h6v12h-5v-8h-24v8h-5zm23-37h-8c-1 5-1 9-2 14-1 4-3 8-4 11h14v-25zm42 24c-1 2-2 4-4 5s-5 1-8 1c-5 0-9-1-11-4-3-3-4-7-4-13s1-10 4-13c2-3 6-5 11-5s9 2 12 6l-5 3-3-3c-1-1-2-1-4-1-3 0-6 1-7 3-1 3-2 6-2 10 0 3 0 6 1 7 0 2 1 3 3 4 1 1 3 2 5 2s3-1 4-1c1-1 3-2 4-3l4 2zm30-24h-11v29h-6v-29h-10v-4h27v4zm24 29v-4c-1 2-3 3-5 4-1 1-3 1-6 1s-5 0-7-2-2-5-2-8c0-2 0-4 1-6 1-1 2-2 4-3s4-2 7-2l8-1v-1c0-3 0-5-2-6-1-1-3-1-6-1-2 0-4 0-5 1s-2 2-2 3l-5-3c1-2 3-3 5-4s4-2 7-2c5 0 9 1 11 3 2 1 3 5 3 9v22h-6zm0-16h-5c-4 0-6 1-8 2-1 1-2 3-2 5s1 3 2 4 2 2 4 2c1 0 2-1 3-1 0 0 1-1 2-1s2-1 2-2c1 0 2-1 2-1v-8zm43 6c0 4-1 7-4 8-2 2-6 2-11 2h-11v-33h11c5 0 8 1 10 2s3 3 3 6c0 4-1 6-5 8 2 0 4 1 5 2 1 2 2 3 2 5zm-7-14c0-2-1-3-2-4-1 0-3-1-6-1h-6v10h6c5 0 8-2 8-5zm1 14c0-1 0-3-2-3-1-1-3-1-6-1h-7v10h5c3 0 6 0 7-1 2-1 3-2 3-5zm20-23v14h4c2 0 3 0 4-1s1-2 2-5c1-2 2-4 3-8h5c0 4-1 7-2 9s-2 4-3 5-2 2-3 2c1 1 3 2 4 3s2 2 2 4c1 2 2 6 3 10h-5c-1-2-2-4-2-6-1-2-1-4-2-5l-2-2c-1-1-3-1-4-1h-4v14h-6v-33h6zm32 33h-6v-33h5v26l17-26h5v33h-5v-25l-16 25zm45 8v-12h3c2-4 4-8 5-14 1-5 1-10 1-15h19v29h6v12h-6v-8h-23v8h-5zm23-37h-8c-1 5-1 9-2 14-1 4-3 8-5 11h15v-25zm28 1v2c0 5 0 10-1 14s-3 8-4 10c-2 2-4 3-6 3h-2c-1 0-1 0-2-1l1-4h2c5 0 7-8 7-24v-5h19v33h-5v-28h-9zm21 28l9-14c-2 0-4-1-5-3s-2-4-2-7 1-5 3-7c2-1 5-2 10-2h12v33h-6v-13h-7l-8 13h-6zm7-23c0 1 1 2 1 3 1 1 2 2 3 2s3 1 5 1h5v-12h-5c-4 0-6 1-7 1-1 1-2 3-2 5zm79 23h-5v-25l-9 17h-3l-9-17v25h-5v-33h6l10 17 9-17h6v33zm39-16c0 6-2 10-4 13-3 3-6 4-11 4s-8-1-11-4c-2-3-4-7-4-13s2-11 4-13c3-3 6-5 11-5s8 2 11 5c2 3 4 7 4 13zm-6 0c0-5-1-8-2-10-2-2-4-3-7-3s-5 1-7 3c-1 2-2 5-2 10 0 4 1 7 2 10 2 2 4 3 7 3s5-1 7-3c1-2 2-6 2-10zm9 24v-12h3c2-4 4-8 5-14 1-5 1-10 1-15h19v29h5v12h-5v-8h-23v8h-5zm23-37h-9c0 5-1 9-2 14-1 4-2 8-4 11h15v-25zm21 13c0 5 0 8 2 10 1 2 4 3 7 3 2 0 3-1 4-1l3-3 5 3c-2 1-3 3-5 4s-4 1-7 1c-5 0-9-1-11-4-3-3-4-7-4-13s1-11 3-13c3-3 6-5 11-5s8 1 10 4c2 2 3 6 3 11v3h-21zm16-4c0-3-1-5-2-7-1-1-3-2-6-2s-5 0-6 2c-1 1-2 4-2 7h16zm24-8v2c0 5-1 10-2 14s-2 8-4 10c-1 2-3 3-6 3h-1c-1 0-2 0-2-1l1-4h2c4 0 6-8 6-24v-5h20v33h-5v-28h-9zm29 12c0 5 0 8 2 10 1 2 4 3 7 3 2 0 3-1 4-1l3-3 5 3c-1 1-3 3-5 4s-4 1-7 1c-5 0-9-1-11-4-3-3-4-7-4-13s1-11 4-13c2-3 6-5 10-5 5 0 8 1 10 4 2 2 3 6 3 11v3h-21zm16-4c0-3-1-5-2-7-1-1-3-2-6-2-2 0-4 0-6 2-1 1-2 4-2 7h16zm20 20h-6v-33h5v26l17-26h5v33h-5v-25l-16 25zm18-45c0 1 0 2-1 4-1 1-2 2-4 3-1 0-3 1-5 1s-4-1-6-1l-3-3c-1-2-2-3-2-4h5c1 1 1 2 2 3s2 1 4 1 3 0 4-1 1-2 1-3h5zm37 45h-5v-33h5v26l16-26h6v33h-5v-25l-17 25zm81 0h-5v-25l-9 17h-3l-9-17v25h-5v-33h6l10 17 9-17h6v33zm17 0h-6v-33h5v26l16-26h6v33h-5v-25l-16 25zm59 0h-6v-15h-16v15h-5v-33h5v14h16v-14h6v33zm16 0h-5v-33h5v26l16-26h6v33h-6v-25l-16 25zm51 0v-4c-1 2-3 3-5 4-1 1-3 1-6 1s-5 0-7-2-3-5-3-8c0-2 1-4 2-6 1-1 2-2 4-3 1-1 4-2 7-2l8-1v-1c0-3 0-5-2-6-1-1-3-1-6-1-2 0-4 0-5 1l-3 3-4-3c1-2 3-3 5-4s4-2 7-2c5 0 9 1 11 3 2 1 3 5 3 9v22h-6zm0-16h-5c-4 0-6 1-8 2-1 1-2 3-2 5s1 3 2 4 2 2 4 2c1 0 2-1 3-1 0 0 1-1 2-1s2-1 2-2c1 0 2-1 2-1v-8zm37-13h-10v29h-6v-29h-10v-4h26v4zm11 29h-5v-33h5v15h7c0-11 5-16 14-16 5 0 9 2 11 5 3 3 4 7 4 13s-1 10-4 13c-2 3-6 4-11 4-4 0-8-1-10-3-3-3-4-7-4-12h-7v14zm31-16c0-4-1-8-3-10-1-2-4-4-7-4s-5 2-7 4c-1 2-2 6-2 10s1 7 2 10c2 2 4 3 7 3s6-1 7-3c2-3 3-6 3-10zm42 0c0 5-1 9-3 13-3 3-6 4-10 4-3 0-7-1-9-3v15h-6v-46h6v3c1-1 2-2 4-3 2 0 4-1 6-1 4 0 7 2 9 5s3 7 3 13zm-5 0c0-9-3-13-8-13-2 0-4 0-5 1-2 1-3 2-4 3v18c2 2 5 4 8 4s5-1 6-4c2-2 3-5 3-9z"/></g></svg>