<svg xmlns="http://www.w3.org/2000/svg" width="57.172mm" height="11.774mm" viewBox="0 0 7231 1489" shape-rendering="geometricPrecision" text-rendering="geometricPrecision" image-rendering="optimizeQuality" fill-rule="evenodd" clip-rule="evenodd"><defs><style><![CDATA[
    .fil0 {fill:#ED4D38}
    .fil1 {fill:#F4F4F4;fill-rule:nonzero}
   ]]></style></defs><g id="Слой_x0020_1"><g id="_2156683816688"><path class="fil0" d="M253 0h6725c140 0 253 114 253 253v983c0 139-113 253-253 253H253c-139 0-253-114-253-253V253C0 114 114 0 253 0z"/><path class="fil1" d="M812 963c-70-124-114-195-187-323-4-9-4-19 1-27 42-70 85-136 141-218 4-5 9-9 17-10h51c14 0 24-8 24-22v-37c0-15-10-22-24-23h-97c-13 1-25 6-32 17-58 76-163 238-199 291-6 9-7 23-1 34 31 51 122 204 182 319 3 5-1 10-5 10-6 0-13 1-18 1-13 0-23 10-23 23v33c0 13 10 23 23 23h180c13 0 22-11 22-24l-1-34c0-12-9-22-21-22h-12c-9 0-17-5-21-13v2zm-485 11c-8 1-16 8-17 16-4 22-3 37-1 50 1 8 10 14 18 14 49 1 171 4 190-1 18-5 20-24 15-63-2-9-10-16-19-16h-13c-11 1-19-7-20-18-8-180-8-372-14-546 0-17 7-25 18-24h6c9 1 21-1 21-11 0-20 1-34 1-53-1-15-11-17-21-17-45 1-108 0-156 0-11 0-17 10-17 21l3 46c0 9 5 14 15 13 1 0 25-2 25 23 0 179 4 373 4 546 0 10-6 17-15 19-8 1-15 1-23 1zm5435 58c17 26 50 26 73 24 43-6 47-37 47-70 0-45-26-62-55-62-41-1-65 10-71 42-4 17-2 52 6 66zm618-375c-17-131-90-189-154-199-59-5-91 14-110 44-2 2-5 1-5-1v-15c0-11-8-19-18-19l-121 1c-10 0-19 8-18 19l1 53c0 8 7 15 15 16h26c8 0 16 7 16 16l1 640c0 14-12 25-25 25h-18c-12 1-22 10-22 23v38c-1 13 9 23 22 23h180c14 0 25-10 25-24l1-34c0-13-11-24-25-25h-16c-14 0-25-11-25-25 0-42-1-134-1-179 0-5 7-7 10-4 26 28 56 34 89 31 68-8 130-53 158-134 27-74 16-190 14-270zm-131 278c-35 54-88 50-125 28-7-5-11-12-11-21V590c0-3 1-7 2-10 105-95 153 82 153 157 0 33 7 157-19 198zm207 394c45 13 182 36 237-110 58-193 124-450 173-646 3-8 10-14 18-14h8c14-1 27-12 28-27l3-35c2-16-11-30-27-30h-152c-15 0-27 13-26 28l1 33c0 15 10 27 24 29l9 1c7 2 12 8 11 16-9 34-69 300-85 360-1 4-8 5-9 1-30-75-97-328-109-372-1-3 1-6 4-6 9 0 25-2 25-13l3-47c2-15-10-29-25-29l-123-1c-14 0-26 12-26 26l-1 35c0 15 13 29 27 30 8 0 13 4 15 10l159 480c1 3 2 8 1 12-6 70-11 117-22 141-25 52-67 55-118 49-18-8-35 0-41 27-11 44 5 45 18 52zM1300 850c5-53 10-179-19-254-44-117-125-136-175-135-82 4-138 34-178 127-24 60-25 299 11 370 24 47 69 93 106 102 39 9 130 13 187-51 37-41 60-92 68-159zm-201 126c-43-3-60-50-69-84-10-34-25-227 13-302 22-44 71-48 102-29 20 13 35 60 41 101 14 82-6 222-7 240-2 35-26 78-80 74zm328-418c12 1 22 9 22 21 1 41 2 138-5 233-7 98-35 147-85 159-11 2-19 11-21 22-2 22-2 55 7 57 62 21 119 6 158-63 66-106 43-272 61-410 0-11 10-20 21-20h93c13 0 22 9 22 21l4 372c0 13-11 23-24 22h-3c-13 0-24 11-24 23l-1 36c0 13 10 24 23 23h166c13 0 22-11 23-23l1-35c0-13-9-23-22-24h-12c-12 0-21-9-21-22l-5-370c0-12 9-21 20-22h19c11-1 19-10 19-22l1-46c0-13-9-22-22-22h-417c-12 0-21 9-21 21v47c0 12 8 22 20 22h3zm903 292c5-53 10-179-19-254-44-117-124-136-175-135-82 4-138 34-178 127-24 60-25 299 11 370 24 47 69 93 106 102 39 9 130 13 188-51 36-41 60-92 67-159zm-201 126c-43-3-60-50-69-84s-24-227 13-302c23-44 71-48 102-29 20 13 35 60 42 101 13 82-7 222-8 240-2 35-26 78-80 74zm673-341c-24-78-52-98-70-114-35-29-151-29-191-2-5 3-13-1-12-6 14-76 72-100 142-104 66-5 104-31 116-75 5-16 7-35 7-49 0-11-8-20-18-20h-59c-9 0-16 7-17 15-2 7-3 13-5 20-21 47-81 13-158 53-119 61-104 199-105 332-1 151-11 372 174 372 162 0 207-87 207-219 0-11 1-165-11-203zm-101 255c-3 35-28 84-79 84-56 0-71-41-80-76-6-26-20-146-6-229 3-19 13-49 32-74 19-24 85-34 108-3 51 67 26 276 25 298zm592 82c-10 0-14-9-14-24 0-4-3-233-5-279-7-108-34-216-178-213-119 3-163 76-173 97-2 5-3 8-3 12 0 12 1 48 1 48-1 17 9 22 21 23h51c11 0 18-5 18-19 0-7 0-30 3-35 7-8 22-48 83-47 56 1 66 32 73 78 3 24 2 71 1 90 0 9-8 15-16 14-11-1-27-1-52-1-89 1-158 33-189 112-25 61-17 143 34 196 30 30 62 37 101 35 21 0 71-4 98-32 10-11 18-22 26-34 2-6 5-6 5-2 1 4 1 7 1 9 0 8 0 14 2 26 2 15 13 28 29 28 6-1 83 0 91 0 12 1 27-5 27-23v-30c0-14-4-29-21-29h-14zm-236-8c-34-5-48-39-49-68s3-69 52-93c26-12 69-6 98-5 7 0 14 6 14 14 1 24 1 65 0 82-2 40-73 76-115 70zm600-10c0 10-8 18-17 17l-89-1c-9-1-16-9-16-17l-3-381c0-10 7-17 17-17h7c10 0 17-8 17-18v-52c0-10-7-17-17-17l-146-1c-10 0-18 7-18 17l1 56c0 9 8 17 18 17h11c10 0 18 7 18 16l3 381c0 9-7 16-16 17h-7c-9 0-18 3-18 15v52c0 10 5 17 18 16h584c11 0 18-8 17-18l-1-51c-1-9-9-16-17-16h-21c-8-1-16-9-16-17l-2-378c0-10 7-17 16-17 9-1 16-9 16-17v-53c1-10-6-17-16-17l-131-3c-10-1-18 7-18 17v56c0 9 8 16 17 17l7 1c9 0 16 7 16 16v380c0 9-7 17-17 17l-77-1c-10 0-17-7-17-17l-7-469c0-9-7-16-16-16l-67-1c-10 0-17 7-17 17l4 470zm878 2c-29-43-111-159-153-221-5-8-5-18 0-27 21-31 73-111 93-140 5-7 15-11 24-11h42c15 0 28-12 28-27l1-34c0-16-11-29-27-29h-79c-14-1-26 5-34 16-54 75-105 151-154 225-14 20-10 25 1 44 30 54 113 171 141 207 4 6 0 12-5 13h-13c-13 1-23 12-22 25l1 34c0 13 10 23 23 23h167c13 0 25-9 24-23l1-37c0-14-12-22-29-22-12 0-24-5-30-16zm-430 15c-10 0-19 8-19 18v47c0 9 8 18 19 18h176c11 0 18-9 18-20v-44c0-9-7-17-18-18h-25c-8 0-14-5-14-13-1-44-5-319-5-388 0-9 6-14 14-14h12c9 1 15-7 16-15v-59c0-10-6-16-16-16h-155c-9 0-15 7-15 16v58c0 7 6 14 15 15l14 1c8 1 15 7 15 16 1 65 0 340 1 386 0 8-7 13-14 13l-19-1zm700-157c-3 5-11 3-11-3-3-88 2-170 2-235 0-10 7-17 16-17l25-4c8-1 14-7 15-14 1-15 2-42 1-58 0-9-7-15-16-15-59 0-130 1-173 1h-8c-11-1-19 7-18 17 1 15 0 40 1 55 0 8 7 15 17 14 5 0 11 0 16-1 10 0 17 8 17 17 0 137 1 243 1 384 0 11-8 18-19 17h-6c-9-1-16 6-16 14-1 18-1 40 0 54 0 7 6 14 12 14 39 1 60 0 98 0 5 0 11-3 14-7 43-60 165-284 205-351 4-5 11-3 11 3 3 101-2 164 2 259 0 8-7 13-16 13-40 0-27 20-27 67 0 9 8 16 17 16 39 1 137 2 168 0 8-1 15-8 15-15 2-14 1-35 0-49 0-8-8-15-16-16h-20c-8-1-15-7-16-16-5-119-4-261-4-382 0-11 9-18 19-17h1c10 1 18-7 20-16 0-16 2-39 2-58 0-9-8-16-17-16h-103c-6 0-10 2-13 6-31 41-147 269-196 340v-1zm873 176c-1-10-11-18-22-18h-14c-11 1-21-8-21-20l-2-374c0-11 8-20 19-21l17-2c11-2 18-10 20-21v-45c1-12-9-21-21-21l-156-1c-11 0-21 9-21 20v47c0 11 9 21 20 22h7c11 1 20 9 20 21l1 94c0 12-10 23-22 23h-128c-11 1-21-9-22-21l-3-96c0-12 10-21 21-21h3c11 0 21-10 21-22v-46c0-12-10-21-21-21h-136c-12-1-22 8-22 20l2 48c0 12 9 23 22 23 10 0 20 8 20 20l1 371c0 11-9 21-26 20-11 0-21 11-21 22v42c0 11 10 21 20 21h142c12 0 23-11 23-23v-36c0-10-8-20-19-21h-9c-10-1-18-11-18-21l2-166c0-11 9-20 21-20h125c12 0 21 8 23 20l4 166c1 10-8 20-18 21l-22 1c-11 1-12 11-12 21v39c0 15 12 19 21 19h164c9 0 17-8 18-19l-1-44v-1z"/></g></g></svg>