<svg xmlns="http://www.w3.org/2000/svg" width="54.847mm" height="24384" viewBox="0 0 65602 7717" shape-rendering="geometricPrecision" text-rendering="geometricPrecision" image-rendering="optimizeQuality" fill-rule="evenodd" clip-rule="evenodd"><defs><style><![CDATA[
    .fil1 {fill:#48220E}
    .fil0 {fill:#1F0F05;fill-rule:nonzero}
   ]]></style></defs><g id="Слой_x0020_1"><g id="_2156908282480"><path class="fil0" d="M658 7595h1813V4658h142c273 0 486 0 607 233l1084 2167c223 456 516 537 1023 537h1063V6076h-192c-203 0-395-20-497-233l-658-1337c-253-506-557-577-557-577v-20s294-132 537-628L6471 354H4496L3271 2927c-122 222-304 222-557 222h-243V1094c0-517-223-740-739-740H0v1519h435c142 0 223 81 223 223v5499zm6178-2592c0 1630 1306 2714 2947 2714 1640 0 2947-1084 2947-2714 0-1641-1307-2745-2958-2745-1630 0-2936 1104-2936 2745zm1762 0c0-790 547-1286 1185-1286 637 0 1184 496 1184 1286 0 779-547 1255-1184 1255-638 0-1185-476-1185-1255zm4466 2612c2055 31 2552-1377 2552-3342v-425h648c142 0 223 91 223 233v2775c0 516 222 739 739 739h1620V6127h-385c-141 0-222-81-222-223V3119c0-516-223-739-740-739h-4142v1468h608v405c0 1550-405 1783-901 1833v1529zm6197-2612c0 1630 1307 2714 2947 2714 1641 0 2947-1084 2947-2714 0-1641-1306-2745-2957-2745-1630 0-2937 1104-2937 2745zm1762 0c0-790 547-1286 1185-1286s1185 496 1185 1286c0 779-547 1255-1185 1255s-1185-476-1185-1255zm7363 2714c1600 0 2805-922 2805-2512 0-1377-901-2380-2299-2380-395 0-952 81-1479 547h-20c0-648 577-871 993-1033l931-354c831-314 1388-466 1388-1367V0h-1671v122c0 202-122 293-588 496l-800 354c-1286 567-1964 1408-1964 3332 0 1762 567 3413 2704 3413zm-942-2481c0-659 446-1023 982-1023 537 0 983 364 983 1023 0 658-446 1043-983 1043-536 0-982-385-982-1043zm4223 901c0 942 729 1580 1711 1580 1074 0 1519-760 1519-760h20v91c0 233 183 547 689 547h1519V6127h-385c-141 0-222-81-222-223V4385c0-1236-598-2127-2482-2127-536 0-2015 71-2015 1226v577h1620v-233c0-203 233-253 456-253 436 0 669 182 669 678v91h-71c-800 0-3028 142-3028 1793zm1731-182c0-436 638-608 1195-608h193v142c0 425-395 921-891 921-324 0-497-223-497-455zm4608 901c0 516 223 739 739 739h5985c517 0 740-223 740-739V4071c0-142 81-223 223-223h384V2380h-1620c-516 0-739 223-739 739v2836c0 141-81 222-223 222h-901V2380h-1752v3797h-861c-142 0-223-81-223-222V3119c0-516-223-739-739-739h-1620v1468h384c142 0 223 81 223 223v2785zm9033 739h1752V5671h243c132 0 294 0 385 172l689 1357c172 334 375 395 749 395h1327V6127h-375c-202 0-304-31-385-172l-334-578c-202-344-486-435-486-435v-20s192-102 385-436l1245-2106h-1903l-902 1650c-91 163-273 173-425 173h-213V3119c0-516-222-739-739-739h-1620v1468h385c141 0 222 81 222 223v3524zm6188 0h1752l1438-2339c81-142 192-304 283-517h21c-21 203-21 405-21 527v1590c0 516 223 739 740 739h1488V6127h-384c-142 0-223-81-223-223V2380h-1752l-1438 2349c-91 152-193 304-284 517h-20c10-132 20-335 20-517V3119c0-516-223-739-739-739h-1489v1468h385c142 0 223 81 223 223v3524zm6674 0h1751V5671h1590v1185c0 516 223 739 740 739h1620V6127h-385c-142 0-223-81-223-223V2380h-1752v1873h-1590V3119c0-516-222-739-739-739h-1620v1468h385c142 0 223 81 223 223v3524z"/><path class="fil1" d="M4486 3909s294-132 537-628L6471 354H4496L3271 2927c-122 222-304 222-557 222h-243V1094c0-517-223-740-739-740H0v1519h435c142 0 223 81 223 223v4717l1813-102V4658h142c273 0 486 0 607 233l865 1730 2305-129v-416h-192c-203 0-395-20-497-233l-658-1337c-253-506-557-577-557-577v-20zM9772 2258c-1630 0-2936 1104-2936 2745 0 549 148 1036 407 1441l5240-294c159-339 247-725 247-1147 0-1641-1307-2745-2958-2745zM8598 5003c0-790 547-1286 1185-1286 637 0 1184 496 1184 1286 0 779-547 1255-1184 1255-638 0-1185-476-1185-1255zM13357 2380v1468h608v405c0 1550-405 1783-901 1833v32l2357-133c142-491 195-1072 195-1712v-425h648c142 0 223 91 223 233v1845l1752-98V3119c0-516-223-739-740-739h-4142zM22198 2258c-1630 0-2937 1104-2937 2745 0 269 36 524 103 762l1818-102c-100-184-159-406-159-660 0-790 547-1286 1185-1286s1185 496 1185 1286c0 202-37 383-102 541l1831-102c22-142 33-288 33-439 0-1641-1306-2745-2957-2745zM27646 972c-1286 567-1964 1408-1964 3332 0 377 26 749 88 1101l1676-93c-1-25-2-51-2-76 0-659 446-1023 982-1023 528 0 967 352 982 989l1781-100c-44-1324-935-2277-2297-2277-395 0-952 81-1479 547h-20c0-648 577-871 993-1033l931-354c831-314 1388-466 1388-1367V0h-1671v122c0 202-122 293-588 496l-800 354zM34036 2258c-536 0-2015 71-2015 1226v577h1620v-233c0-203 233-253 456-253 436 0 669 182 669 678v91h-71c-568 0-1857 72-2556 704l4379-245v-418c0-1236-598-2127-2482-2127zM37399 2380v1468h384c142 0 223 81 223 223v649l1752-99V3119c0-516-223-739-739-739h-1620zM40842 2380v2181l1752-98V2380zM43718 3119v1281l1752-99v-230c0-142 81-223 223-223h384V2380h-1620c-516 0-739 223-739 739zM46432 2380v1468h385c141 0 222 81 222 223v142l1752-98v-996c0-516-222-739-739-739h-1620zM50331 2380l-902 1650c-10 19-22 36-35 51l1897-106 943-1595h-1903zM52619 2380v1468h385c46 0 85 9 117 25l1726-97v-657c0-516-223-739-739-739h-1489zM59293 2380v1147l2359-133v-275c0-516-222-739-739-739h-1620zM63242 2380v925l1752-98v-827zM58321 3581V2380h-1752l-824 1345z"/></g></g></svg>