<svg xmlns="http://www.w3.org/2000/svg" width="50.248mm" height="6.412mm" viewBox="0 0 4824 616" shape-rendering="geometricPrecision" text-rendering="geometricPrecision" image-rendering="optimizeQuality" fill-rule="evenodd" clip-rule="evenodd"><defs><style><![CDATA[
    .fil0 {fill:#ED4D38;fill-rule:nonzero}
   ]]></style></defs><path class="fil0" d="M112 54v224h63c15 0 28-7 40-22 11-14 22-38 34-71 11-32 24-76 38-131h115c-18 76-36 136-56 179-19 42-41 72-67 89 22 12 40 28 54 46 15 19 28 45 40 76 12 32 27 85 45 159H302c-10-38-20-72-28-101s-17-53-27-72c-10-20-21-34-33-44-12-9-28-14-46-14h-56v231H0V54h112zm775 342c0 69-16 123-48 162-32 38-83 58-152 58-133 0-200-74-200-220 0-70 16-125 48-163 32-39 83-58 152-58s120 19 152 58c32 38 48 93 48 163zm-106 0c0-46-7-79-22-100-14-21-38-32-72-32-33 0-57 11-72 33-15 21-22 54-22 99s7 77 22 98 39 32 72 32 57-11 72-31c14-21 22-54 22-99zm367-133v26c0 111-12 192-38 244-25 52-66 77-123 77-9 0-19-1-31-3s-20-4-27-7l18-74c8 2 16 3 23 3 28 0 48-20 60-61 13-41 19-106 19-195v-86h307v416h-101V263h-107zm696 133c0 69-16 123-48 162-32 38-82 58-151 58-133 0-200-74-200-220 0-70 16-125 48-163 32-39 83-58 152-58s119 19 151 58c32 38 48 93 48 163zm-106 0c0-46-7-79-21-100s-38-32-72-32c-33 0-57 11-72 33-15 21-22 54-22 99s7 77 22 98c14 21 38 32 72 32 33 0 57-11 71-31 15-21 22-54 22-99zm601-3c0 70-18 125-53 164s-84 59-145 59c-72 0-126-24-163-70s-55-114-55-203c0-50 3-93 10-129s17-66 31-90c14-25 31-44 52-59 22-14 46-26 75-35 28-9 61-15 97-19 35-4 75-8 119-11v84c-43 3-81 6-115 9-33 4-61 10-85 21-23 10-41 24-54 44s-21 47-23 82c33-27 76-41 126-41 122 0 183 65 183 194zm-105 3c0-40-7-70-22-88-14-19-38-28-71-28-19 0-38 4-58 13s-38 20-53 36l-1 15v16c0 54 9 96 28 127 19 32 47 47 84 47 29 0 51-12 68-37s25-59 25-101zm445 207v-43c-41 37-84 56-130 56s-81-13-105-37c-23-24-35-55-35-93 0-29 6-54 18-73 12-20 30-35 54-46 23-11 57-18 102-23l88-8v-19c0-23-8-39-22-48-14-8-34-13-61-13-22 0-41 4-57 11-16 8-28 18-36 32l-80-51c14-24 36-42 66-54 30-13 66-19 108-19 65 0 112 11 141 34s43 60 43 111v283h-94zm-8-193l-53 5c-36 3-63 10-79 21s-25 27-25 49c0 19 6 32 16 39 11 7 25 10 42 10 13 0 28-4 46-11 18-8 35-19 53-34v-79zm651 119V187h102v416h-544V187h102v342h119V187h102v342h119zm308-342v165h53c14 0 26-6 36-17s19-28 29-50c9-22 20-55 32-98h105c-15 54-31 98-48 131-18 32-38 56-62 71 18 8 32 19 44 31s22 27 31 44 17 37 25 60c7 23 15 49 25 79h-105c-9-29-18-54-25-76-8-22-16-40-24-54-9-15-19-26-29-33-11-8-24-11-40-11h-47v174h-102V187h102zm435 416h-97V187h93v281l192-281h98v416h-93V323l-193 280zm759 0h-103V428h-168v175h-102V187h102v164h168V187h103v416z" id="Слой_x0020_1"/></svg>