<svg xmlns="http://www.w3.org/2000/svg" viewBox="0 0 480 480"><path fill="#FFE0B1" d="M32 196h416v248H32z"/><path fill="#51DBFF" d="M72 276h64v104H72z"/><path fill="#B2F3FF" d="M72 276l64 64v40l-64-64"/><path d="M296 260H184c-8.82 0-16 7.176-16 16v168c0 4.418 3.578 8 8 8h128c4.422 0 8-3.582 8-8V276c0-8.824-7.18-16-16-16z" fill="#7E5C62"/><path d="M168 444h72V260h-56c-8.837 0-16 7.163-16 16v168z" fill="#5C546A"/><path d="M400 196c0 17.673 14.327 32 32 32s32-14.327 32-32L435.716 47.51C433.56 36.19 423.663 28 412.14 28H67.86c-11.523 0-21.42 8.19-23.576 19.51L16 196c0 17.673 14.327 32 32 32s32-14.327 32-32c0 17.673 14.327 32 32 32s32-14.327 32-32c0 17.673 14.327 32 32 32s32-14.327 32-32c0 17.673 14.327 32 32 32s32-14.327 32-32c0 17.673 14.327 32 32 32s32-14.327 32-32c0 17.673 14.327 32 32 32s32-14.327 32-32z" fill="#FF4F19"/><path d="M472 452H8c-4.422 0-8-3.582-8-8s3.578-8 8-8h464c4.422 0 8 3.582 8 8s-3.578 8-8 8z" fill="#5C546A"/><path d="M208 196c0 17.673 14.327 32 32 32s32-14.326 32-32l-4-168h-56l-4 168zM80 196l-.912 7.292c.55-2.352.912-4.773.912-7.292zM144 196l11.5-168H101L80 196c0 17.673 14.327 32 32 32s32-14.327 32-32zM400 196c0 2.52.36 4.94.912 7.292L400 196zM336 196.005c.003 17.67 14.328 31.995 32 31.995 17.673 0 32-14.327 32-32L379 28h-54.5L336 196.005z" fill="#E7001E"/><path d="M142.4 260H65.6c-5.302 0-9.6 3.582-9.6 8v120c0 4.418 4.298 8 9.6 8h76.8c5.302 0 9.6-3.582 9.6-8V268c0-4.418-4.298-8-9.6-8zm-6.4 16v24H72v-24h64zM72 380v-64h64v64H72z" fill="#7E5C62"/><path fill="#51DBFF" d="M344 276h64v104h-64z"/><path fill="#B2F3FF" d="M344 276l64 64v40l-64-64"/><path d="M414.4 260h-76.8c-5.302 0-9.6 3.582-9.6 8v120c0 4.418 4.298 8 9.6 8h76.8c5.302 0 9.6-3.582 9.6-8V268c0-4.418-4.298-8-9.6-8zm-6.4 16v24h-64v-24h64zm-64 104v-64h64v64h-64z" fill="#7E5C62"/><path d="M223 380h-38c-.552 0-1-.448-1-1V277c0-.552.448-1 1-1h38c.552 0 1 .448 1 1v102c0 .552-.448 1-1 1z" fill="#51DBFF"/><path fill="#B2F3FF" d="M224 324l-40-40v40l40 40"/><path d="M295 380h-38c-.552 0-1-.448-1-1V277c0-.552.448-1 1-1h38c.552 0 1 .448 1 1v102c0 .552-.448 1-1 1z" fill="#51DBFF"/><path fill="#B2F3FF" d="M296 324l-40-40v40l40 40"/></svg>