<svg xmlns="http://www.w3.org/2000/svg" width="82.28mm" height="71.386mm" viewBox="0 0 952 826" shape-rendering="geometricPrecision" text-rendering="geometricPrecision" image-rendering="optimizeQuality" fill-rule="evenodd" clip-rule="evenodd"><defs><style><![CDATA[
    .fil0 {fill:#0A0A0A}
   ]]></style></defs><g id="Слой_x0020_1"><g id="_1952168766544"><path class="fil0" d="M945 206c-6-9-16-15-27-16l-756-75L65 12C51-3 27-4 12 10s-16 38-2 53l96 103v481c0 46 35 84 79 90-3 8-5 17-5 26 0 35 28 63 63 63 34 0 62-28 62-63 0-9-2-18-5-25h353c-3 7-5 16-5 25 0 35 28 63 62 63 35 0 63-28 63-63 0-9-2-18-5-25h32c21 0 38-17 38-38 0-20-17-37-38-37H197c-9 0-16-7-16-16v-42h651c17 0 32-12 36-29l83-340c2-10 0-21-6-30zM803 530H181V192l687 69-65 269z"/></g></g></svg>